<?xml version="1.0" encoding="utf-8"?>
<!-- Generator: Adobe Illustrator 19.0.0, SVG Export Plug-In . SVG Version: 6.00 Build 0)  -->
<svg version="1.1" id="Layer_1" xmlns="http://www.w3.org/2000/svg" xmlns:xlink="http://www.w3.org/1999/xlink" x="0px" y="0px"
	 viewBox="0 0 400 100" style="enable-background:new 0 0 400 100;" xml:space="preserve">
<style type="text/css">
	.st0{fill:#2B313C;}
	.st1{fill:#63DDBF;}
</style>
<g id="XMLID_2_">
	<rect class="st0" width="400" height="100"/>
</g>
<g id="XMLID_1_">
	<path id="XMLID_4_" class="st1" d="M126.5,63.7h-18l-3.5,11H94.7l17.6-51.2h10.5l17.5,51.2H130L126.5,63.7z M111.1,55.6H124
		l-6.3-20.1h-0.2L111.1,55.6z"/>
	<path id="XMLID_7_" class="st1" d="M142.7,56c0-6,1.3-10.8,3.9-14.5c2.6-3.7,6.2-5.5,11-5.5c2.1,0,4,0.5,5.6,1.4
		c1.6,0.9,3,2.3,4.1,4l0.9-4.7h8.7v52.7h-10.3V71.2c-1.1,1.4-2.4,2.5-4,3.2s-3.2,1.1-5.2,1.1c-4.7,0-8.3-1.7-10.9-5.1
		s-3.9-7.9-3.9-13.6V56z M153,56.7c0,3.3,0.6,6,1.7,7.9c1.1,1.9,3,2.9,5.5,2.9c1.5,0,2.8-0.3,3.9-0.8s2-1.4,2.6-2.5V47.4
		c-0.7-1.1-1.6-2-2.6-2.6c-1.1-0.6-2.3-0.9-3.8-0.9c-2.5,0-4.3,1.1-5.5,3.4S153,52.4,153,56V56.7z"/>
	<path id="XMLID_10_" class="st1" d="M208.2,69.2c-1.2,2-2.7,3.5-4.5,4.6s-3.9,1.6-6.2,1.6c-4,0-7.1-1.3-9.4-3.8s-3.4-6.6-3.4-12
		v-23h10.2v23.1c0,2.8,0.5,4.8,1.4,6s2.3,1.8,4.1,1.8c1.6,0,3-0.3,4.2-0.8s2.1-1.3,2.9-2.3V36.7h10.3v38h-8.8L208.2,69.2z"/>
	<path id="XMLID_12_" class="st1" d="M247.9,74.7c-0.4-0.9-0.7-1.8-1-2.7s-0.5-1.9-0.6-3c-1.1,1.9-2.4,3.4-4.2,4.6s-3.8,1.8-6.2,1.8
		c-4,0-7.1-1-9.2-3.1s-3.2-4.8-3.2-8.4c0-3.7,1.4-6.6,4.3-8.7s7.1-3.1,12.6-3.1h5.7v-3c0-1.8-0.5-3.2-1.4-4.3c-1-1-2.4-1.5-4.3-1.5
		c-1.7,0-2.9,0.4-3.8,1.2s-1.4,1.9-1.4,3.4l-9.9,0l0-0.2c-0.2-3.2,1.2-6,4.2-8.3c3-2.3,6.8-3.5,11.6-3.5c4.5,0,8.2,1.2,11.1,3.5
		c2.8,2.3,4.3,5.6,4.3,9.9V65c0,1.8,0.1,3.5,0.4,5s0.7,3.1,1.3,4.7H247.9z M238.5,67.9c1.8,0,3.4-0.4,4.8-1.3s2.4-1.9,2.8-3.1v-5.4
		h-5.7c-2.2,0-3.8,0.5-5,1.6s-1.7,2.4-1.7,4c0,1.3,0.4,2.3,1.3,3.1S237.1,67.9,238.5,67.9z"/>
	<path id="XMLID_15_" class="st1" d="M284.8,64.3c0-1.1-0.5-2.1-1.6-2.9s-3.1-1.5-6.1-2.2c-4.5-0.9-7.9-2.3-10.2-4.1
		s-3.4-4.2-3.4-7.3c0-3.3,1.4-6.1,4.1-8.3s6.4-3.4,11.1-3.4c4.9,0,8.7,1.1,11.6,3.4c2.9,2.3,4.2,5.1,4.1,8.6l-0.1,0.2h-9.9
		c0-1.5-0.5-2.8-1.5-3.7c-1-1-2.4-1.4-4.3-1.4c-1.7,0-3,0.4-3.9,1.2s-1.4,1.8-1.4,3c0,1.2,0.5,2.1,1.5,2.9c1,0.8,3,1.4,6.1,2
		c4.7,0.9,8.2,2.3,10.4,4.1s3.4,4.3,3.4,7.5c0,3.4-1.5,6.2-4.4,8.4s-6.8,3.3-11.6,3.3c-5.1,0-9.1-1.3-12-3.8s-4.3-5.5-4.2-8.8
		l0.1-0.2h9.4c0.1,2,0.7,3.5,2,4.4s2.9,1.4,5,1.4c1.9,0,3.3-0.4,4.3-1.1S284.8,65.5,284.8,64.3z"/>
</g>
</svg>
