<?xml version="1.0" encoding="utf-8"?>
<!-- Generator: Adobe Illustrator 19.0.0, SVG Export Plug-In . SVG Version: 6.00 Build 0)  -->
<svg version="1.1" id="Layer_1" xmlns="http://www.w3.org/2000/svg" xmlns:xlink="http://www.w3.org/1999/xlink" x="0px" y="0px"
	 viewBox="0 0 700 400" style="enable-background:new 0 0 700 400;" xml:space="preserve">
<style type="text/css">
	.st0{fill:#4171A0;stroke:#231F20;stroke-miterlimit:10;}
	.st1{fill:#4C90C1;}
	.st2{fill:#FFFFFF;}
	.st3{fill:#242831;stroke:#231F20;stroke-miterlimit:10;}
</style>
<rect id="XMLID_1_" class="st0" width="700" height="400"/>
<rect id="XMLID_5_" y="-1" class="st1" width="700" height="156"/>
<g id="XMLID_4_">
	<path id="XMLID_18_" class="st2" d="M385.7,137.1c-5-2.4-9.4-8.8-9.8-14.3l-4.4-58.3c-0.4-5.5,3-12.5,7.5-15.6l48.3-33
		c4.5-3.1,12.3-3.7,17.3-1.3l52.7,25.4c5,2.4,9.4,8.8,9.8,14.3l4.4,58.3c0.4,5.5-3,12.5-7.5,15.6l-48.3,33
		c-4.5,3.1-12.3,3.7-17.3,1.3L385.7,137.1z"/>
</g>
<rect id="XMLID_2_" x="-9.7" y="176.4" transform="matrix(0.9612 -0.2757 0.2757 0.9612 -82.5688 130.7679)" class="st3" width="867.1" height="365.3"/>
<g id="XMLID_3_">
	<path id="XMLID_16_" class="st2" d="M184.6,211.5c-5.1,2.1-12.8,1.2-17.2-2.1l-46.7-35.2c-4.4-3.3-7.4-10.5-6.8-15.9l7.2-58
		c0.7-5.5,5.4-11.7,10.4-13.8l53.9-22.8c5.1-2.1,12.8-1.2,17.2,2.1l46.7,35.2c4.4,3.3,7.4,10.5,6.8,15.9l-7.2,58
		c-0.7,5.5-5.4,11.7-10.4,13.8L184.6,211.5z"/>
</g>
</svg>
