<?xml version="1.0" encoding="utf-8"?>
<!-- Generator: Adobe Illustrator 19.0.0, SVG Export Plug-In . SVG Version: 6.00 Build 0)  -->
<svg version="1.1" id="Layer_1" xmlns="http://www.w3.org/2000/svg" xmlns:xlink="http://www.w3.org/1999/xlink" x="0px" y="0px"
	 viewBox="0 0 400 100" style="enable-background:new 0 0 400 100;" xml:space="preserve">
<style type="text/css">
	.st0{fill:#2B313C;}
	.st1{fill:#2F648D;}
</style>
<g id="XMLID_2_">
	<rect class="st0" width="400" height="100"/>
</g>
<g id="XMLID_1_">
	<path id="XMLID_4_" class="st1" d="M107.9,74.7V23.5h17.3c6,0,10.7,1.2,14.1,3.5c3.4,2.3,5.1,5.8,5.1,10.5c0,2.4-0.6,4.5-1.9,6.3
		c-1.3,1.9-3.1,3.3-5.5,4.2c3.1,0.7,5.4,2.1,6.9,4.2c1.5,2.2,2.3,4.7,2.3,7.5c0,4.9-1.6,8.6-4.9,11.1s-7.8,3.8-13.7,3.8H107.9z
		 M118.2,45h7.4c2.7,0,4.9-0.6,6.3-1.7s2.2-2.8,2.2-4.9c0-2.4-0.7-4.1-2.2-5.2c-1.5-1.1-3.7-1.7-6.7-1.7h-7V45z M118.2,52.1v14.7
		h9.5c2.7,0,4.8-0.6,6.2-1.8c1.4-1.2,2.1-2.9,2.1-5.2c0-2.5-0.6-4.4-1.8-5.7c-1.2-1.3-3.1-2-5.8-2H118.2z"/>
	<path id="XMLID_8_" class="st1" d="M164.1,74.7h-10.3V19.9h10.3V74.7z"/>
	<path id="XMLID_10_" class="st1" d="M195.7,69.2c-1.2,2-2.7,3.5-4.5,4.6s-3.9,1.6-6.2,1.6c-4,0-7.1-1.3-9.4-3.8s-3.4-6.6-3.4-12
		v-23h10.2v23.1c0,2.8,0.5,4.8,1.4,6s2.3,1.8,4.1,1.8c1.6,0,3-0.3,4.2-0.8s2.1-1.3,2.9-2.3V36.7h10.3v38h-8.8L195.7,69.2z"/>
	<path id="XMLID_12_" class="st1" d="M230,75.5c-5.5,0-9.9-1.8-13.1-5.3s-4.9-8-4.9-13.4v-1.4c0-5.6,1.6-10.3,4.7-14
		s7.3-5.5,12.5-5.4c5.1,0,9.1,1.5,12,4.6s4.3,7.3,4.3,12.6v5.6h-22.7l-0.1,0.2c0.2,2.5,1,4.6,2.5,6.2s3.5,2.4,6.1,2.4
		c2.3,0,4.2-0.2,5.7-0.7s3.1-1.2,4.9-2.2l2.8,6.3c-1.5,1.3-3.6,2.3-6.1,3.2C235.9,75,233.1,75.5,230,75.5z M229.1,43.9
		c-1.9,0-3.4,0.7-4.5,2.2c-1.1,1.5-1.8,3.4-2,5.7l0.1,0.2h12.6v-0.9c0-2.2-0.5-3.9-1.5-5.2S231.1,43.9,229.1,43.9z"/>
	<path id="XMLID_15_" class="st1" d="M271.8,64.3c0-1.1-0.5-2.1-1.6-2.9s-3.1-1.5-6.1-2.2c-4.5-0.9-7.9-2.3-10.2-4.1
		s-3.4-4.2-3.4-7.3c0-3.3,1.4-6.1,4.1-8.3s6.4-3.4,11.1-3.4c4.9,0,8.7,1.1,11.6,3.4c2.9,2.3,4.2,5.1,4.1,8.6l-0.1,0.2h-9.9
		c0-1.5-0.5-2.8-1.5-3.7c-1-1-2.4-1.4-4.3-1.4c-1.7,0-3,0.4-3.9,1.2s-1.4,1.8-1.4,3c0,1.2,0.5,2.1,1.5,2.9c1,0.8,3,1.4,6.1,2
		c4.7,0.9,8.2,2.3,10.4,4.1s3.4,4.3,3.4,7.5c0,3.4-1.5,6.2-4.4,8.4s-6.8,3.3-11.6,3.3c-5.1,0-9.1-1.3-12-3.8s-4.3-5.5-4.2-8.8
		l0.1-0.2h9.4c0.1,2,0.7,3.5,2,4.4s2.9,1.4,5,1.4c1.9,0,3.3-0.4,4.3-1.1S271.8,65.5,271.8,64.3z"/>
</g>
</svg>
