<?xml version="1.0" encoding="utf-8"?>
<!-- Generator: Adobe Illustrator 19.0.0, SVG Export Plug-In . SVG Version: 6.00 Build 0)  -->
<svg version="1.1" id="Layer_1" xmlns="http://www.w3.org/2000/svg" xmlns:xlink="http://www.w3.org/1999/xlink" x="0px" y="0px"
	 viewBox="0 0 1000 1000" style="enable-background:new 0 0 1000 1000;" xml:space="preserve">
<style type="text/css">
	.st0{fill:#4171A0;stroke:#231F20;stroke-miterlimit:10;}
	.st1{fill:#4C90C1;}
	.st2{fill:#FFFFFF;}
	.st3{fill:#242831;stroke:#231F20;stroke-miterlimit:10;}
</style>
<rect id="XMLID_1_" x="-1463" y="74" class="st0" width="3888" height="1143.9"/>
<rect id="XMLID_5_" x="-1463" y="-91.2" class="st1" width="3888" height="608.5"/>
<g id="XMLID_4_">
	<path id="XMLID_18_" class="st2" d="M697.7,389.4c-5-2.4-9.4-8.8-9.8-14.3l-7.2-95.4c-0.4-5.5,3-12.5,7.5-15.6l79.1-54
		c4.5-3.1,12.3-3.7,17.3-1.3l86.3,41.5c5,2.4,9.4,8.8,9.8,14.3l7.2,95.4c0.4,5.5-3,12.5-7.5,15.6l-79.1,54
		c-4.5,3.1-12.3,3.7-17.3,1.3L697.7,389.4z"/>
</g>
<rect id="XMLID_2_" x="-1728.2" y="442.2" transform="matrix(0.9612 -0.2757 0.2757 0.9612 -218.9591 371.5245)" class="st3" width="5880.2" height="1044.6"/>
<g id="XMLID_3_">
	<path id="XMLID_17_" class="st2" d="M123,522.1c-5.1,2.1-12.8,1.2-17.2-2.1l-66-49.8c-4.4-3.3-7.4-10.5-6.8-15.9l10.1-82.1
		c0.7-5.5,5.4-11.7,10.4-13.8l76.2-32.2c5.1-2.1,12.8-1.2,17.2,2.1l66,49.8c4.4,3.3,7.4,10.5,6.8,15.9L209.6,476
		c-0.7,5.5-5.4,11.7-10.4,13.8L123,522.1z"/>
</g>
</svg>
