<?xml version="1.0" encoding="utf-8"?>
<!-- Generator: Adobe Illustrator 19.0.0, SVG Export Plug-In . SVG Version: 6.00 Build 0)  -->
<svg version="1.1" id="Layer_1" xmlns="http://www.w3.org/2000/svg" xmlns:xlink="http://www.w3.org/1999/xlink" x="0px" y="0px"
	 viewBox="0 0 200 200" style="enable-background:new 0 0 200 200;" xml:space="preserve">
<style type="text/css">
	.st0{fill:#231F20;}
	.st1{fill:none;stroke:#231F20;stroke-miterlimit:10;}
</style>
<g id="XMLID_1_">
	<path id="XMLID_12_" class="st0" d="M81.7,149c-5.5,0-12.3-3.9-15-8.7l-18.3-31.7c-2.8-4.8-2.8-12.6,0-17.3l18.3-31.7
		c2.8-4.8,9.5-8.7,15-8.7h36.6c5.5,0,12.2,3.9,15,8.7l18.3,31.7c2.8,4.8,2.8,12.6,0,17.3l-18.3,31.7c-2.8,4.8-9.5,8.7-15,8.7H81.7z"
		/>
	<path id="XMLID_11_" class="st1" d="M81.7,149c-5.5,0-12.3-3.9-15-8.7l-18.3-31.7c-2.8-4.8-2.8-12.6,0-17.3l18.3-31.7
		c2.8-4.8,9.5-8.7,15-8.7h36.6c5.5,0,12.2,3.9,15,8.7l18.3,31.7c2.8,4.8,2.8,12.6,0,17.3l-18.3,31.7c-2.8,4.8-9.5,8.7-15,8.7H81.7z"
		/>
</g>
</svg>
