<?xml version="1.0" encoding="utf-8"?>
<!-- Generator: Adobe Illustrator 19.0.0, SVG Export Plug-In . SVG Version: 6.00 Build 0)  -->
<svg version="1.1" id="Layer_1" xmlns="http://www.w3.org/2000/svg" xmlns:xlink="http://www.w3.org/1999/xlink" x="0px" y="0px"
	 viewBox="0 0 500 500" style="enable-background:new 0 0 500 500;" xml:space="preserve">
<style type="text/css">
	.st0{fill:#242831;}
	.st1{fill:#2B313C;}
	.st2{fill:#9DEE98;}
</style>
<g id="XMLID_23_">
	<g id="XMLID_27_">
		<rect y="0.5" class="st0" width="500" height="499"/>
	</g>
	<g id="XMLID_24_">
		<path class="st0" d="M500.5,500h-501V0h501V500z M0.5,499h499V1H0.5V499z"/>
	</g>
</g>
<g id="XMLID_1_">
	<g id="XMLID_3_">
		<rect y="267.8" class="st1" width="500" height="231.9"/>
	</g>
	<g id="XMLID_20_">
		<path class="st1" d="M500.5,500h-501V267.6h501V500z M0.5,499.5h499V268.1H0.5V499.5z"/>
	</g>
</g>
<g id="XMLID_28_">
</g>
<g id="XMLID_2_">
	<path id="XMLID_5_" class="st2" d="M133.9,417.2c-2.7,3.5-6.8,6.7-12.5,9.4c-5.6,2.8-12.8,4.1-21.4,4.1c-11,0-19.9-3.4-26.9-10.2
		c-6.9-6.8-10.4-15.7-10.4-26.6v-18.7c0-10.8,3.3-19.7,10-26.5c6.7-6.8,15.3-10.3,25.8-10.3c10.9,0,19.3,2.7,25.1,8
		c5.8,5.3,8.8,12.3,8.9,21l-0.1,0.4h-16.9c-0.3-4.8-1.8-8.5-4.6-11.3c-2.7-2.8-6.7-4.2-11.9-4.2c-5.5,0-9.9,2.1-13.3,6.4
		c-3.4,4.2-5.1,9.7-5.1,16.4V394c0,6.8,1.7,12.3,5.2,16.6c3.5,4.2,8.2,6.4,14.1,6.4c4.2,0,7.6-0.4,10.1-1.3c2.5-0.9,4.5-1.9,5.8-3.2
		v-16.6H100v-12.4h33.9V417.2z"/>
	<path id="XMLID_7_" class="st2" d="M182.9,378.3l-6.6-0.2c-2.7,0-4.9,0.6-6.6,1.7c-1.7,1.1-3,2.7-3.9,4.7v45h-17.9v-66.7h16.7
		l0.8,9.9c1.6-3.5,3.6-6.2,6.1-8.2c2.5-2,5.3-2.9,8.6-2.9c0.9,0,1.7,0.1,2.5,0.2c0.8,0.1,1.5,0.3,2.3,0.5L182.9,378.3z"/>
	<path id="XMLID_9_" class="st2" d="M221.5,430.8c-9.6,0-17.3-3.1-23-9.2c-5.8-6.2-8.6-14-8.6-23.5v-2.5c0-9.9,2.7-18.1,8.2-24.5
		c5.4-6.4,12.7-9.6,21.9-9.5c9,0,16,2.7,20.9,8.1c5,5.4,7.5,12.8,7.5,22v9.8h-39.8l-0.1,0.4c0.3,4.4,1.8,8,4.4,10.8
		c2.6,2.8,6.1,4.2,10.6,4.2c4,0,7.3-0.4,9.9-1.2c2.6-0.8,5.5-2.1,8.6-3.8l4.9,11.1c-2.7,2.2-6.3,4.1-10.7,5.5
		C231.8,430.1,226.9,430.8,221.5,430.8z M219.9,375.5c-3.3,0-6,1.3-7.9,3.8c-1.9,2.5-3.1,5.9-3.6,10l0.2,0.3h22.1V388
		c0-3.8-0.9-6.9-2.7-9.1C226.2,376.6,223.5,375.5,219.9,375.5z"/>
	<path id="XMLID_12_" class="st2" d="M288.3,430.8c-9.6,0-17.3-3.1-23-9.2c-5.8-6.2-8.6-14-8.6-23.5v-2.5c0-9.9,2.7-18.1,8.2-24.5
		s12.7-9.6,21.9-9.5c9,0,16,2.7,20.9,8.1c5,5.4,7.5,12.8,7.5,22v9.8h-39.8l-0.1,0.4c0.3,4.4,1.8,8,4.4,10.8
		c2.6,2.8,6.1,4.2,10.6,4.2c4,0,7.3-0.4,9.9-1.2c2.6-0.8,5.5-2.1,8.6-3.8l4.9,11.1c-2.7,2.2-6.3,4.1-10.7,5.5
		C298.6,430.1,293.7,430.8,288.3,430.8z M286.7,375.5c-3.3,0-6,1.3-7.9,3.8c-1.9,2.5-3.1,5.9-3.6,10l0.2,0.3h22.1V388
		c0-3.8-0.9-6.9-2.7-9.1C293,376.6,290.3,375.5,286.7,375.5z"/>
	<path id="XMLID_15_" class="st2" d="M342,362.8l0.8,9.5c2.2-3.4,4.9-6.1,8.2-7.9c3.2-1.9,6.9-2.8,10.9-2.8c6.7,0,12,2.1,15.8,6.3
		c3.8,4.2,5.7,10.9,5.7,19.9v41.6h-18.1v-41.7c0-4.5-0.9-7.7-2.7-9.5c-1.8-1.9-4.5-2.8-8.2-2.8c-2.4,0-4.5,0.5-6.4,1.5
		c-1.9,1-3.5,2.3-4.7,4.1v48.5h-18v-66.7H342z"/>
	<path id="XMLID_17_" class="st2" d="M432.8,411.1c0-2-1-3.7-2.9-5.1c-1.9-1.4-5.5-2.7-10.6-3.8c-7.9-1.6-13.8-4-17.8-7.1
		c-4-3.1-6-7.4-6-12.8c0-5.7,2.4-10.6,7.2-14.6c4.8-4,11.3-6,19.4-6c8.5,0,15.3,2,20.3,6c5,4,7.4,9,7.2,15.1l-0.1,0.4h-17.4
		c0-2.7-0.9-4.8-2.6-6.5c-1.7-1.7-4.2-2.5-7.5-2.5c-2.9,0-5.2,0.7-6.9,2.1s-2.5,3.2-2.5,5.3c0,2.1,0.9,3.7,2.6,5.1
		c1.7,1.3,5.3,2.5,10.6,3.5c8.2,1.6,14.3,4.1,18.3,7.2c4,3.2,6,7.6,6,13.2c0,6-2.6,10.9-7.7,14.7c-5.1,3.8-11.9,5.7-20.3,5.7
		c-8.9,0-15.9-2.2-21-6.7c-5.2-4.5-7.6-9.6-7.4-15.4l0.1-0.4h16.4c0.1,3.6,1.3,6.2,3.5,7.8c2.2,1.6,5.1,2.4,8.7,2.4
		c3.3,0,5.9-0.7,7.6-2C432,415.2,432.8,413.4,432.8,411.1z"/>
</g>
</svg>
