<?xml version="1.0" encoding="utf-8"?>
<!-- Generator: Adobe Illustrator 19.0.0, SVG Export Plug-In . SVG Version: 6.00 Build 0)  -->
<svg version="1.1" id="Layer_1" xmlns="http://www.w3.org/2000/svg" xmlns:xlink="http://www.w3.org/1999/xlink" x="0px" y="0px"
	 viewBox="0 0 400 100" style="enable-background:new 0 0 400 100;" xml:space="preserve">
<style type="text/css">
	.st0{fill:#2B313C;}
	.st1{fill:#9DEE98;}
</style>
<g id="XMLID_2_">
	<rect class="st0" width="400" height="100"/>
</g>
<g id="XMLID_1_">
	<path id="XMLID_4_" class="st1" d="M126.6,67.7c-1.5,2-3.9,3.8-7.1,5.4c-3.2,1.6-7.3,2.4-12.2,2.4c-6.3,0-11.4-1.9-15.3-5.8
		c-4-3.9-5.9-8.9-5.9-15.2V43.8c0-6.2,1.9-11.2,5.7-15.1c3.8-3.9,8.7-5.9,14.7-5.9c6.2,0,11,1.5,14.3,4.6c3.3,3,5,7,5.1,12l-0.1,0.2
		h-9.7c-0.2-2.7-1.1-4.9-2.6-6.5s-3.8-2.4-6.8-2.4c-3.1,0-5.7,1.2-7.6,3.6c-1.9,2.4-2.9,5.5-2.9,9.4v10.7c0,3.9,1,7,3,9.5
		c2,2.4,4.7,3.6,8.1,3.6c2.4,0,4.3-0.2,5.8-0.7c1.5-0.5,2.6-1.1,3.3-1.8v-9.5h-9.1v-7.1h19.3V67.7z"/>
	<path id="XMLID_6_" class="st1" d="M154.6,45.5l-3.8-0.1c-1.5,0-2.8,0.3-3.8,0.9s-1.7,1.5-2.3,2.7v25.7h-10.2v-38h9.5l0.5,5.6
		c0.9-2,2-3.5,3.5-4.7c1.4-1.1,3.1-1.7,4.9-1.7c0.5,0,1,0,1.4,0.1c0.4,0.1,0.9,0.2,1.3,0.3L154.6,45.5z"/>
	<path id="XMLID_8_" class="st1" d="M176.6,75.5c-5.5,0-9.9-1.8-13.1-5.3s-4.9-8-4.9-13.4v-1.4c0-5.6,1.6-10.3,4.7-14
		s7.3-5.5,12.5-5.4c5.1,0,9.1,1.5,12,4.6s4.3,7.3,4.3,12.6v5.6h-22.7l-0.1,0.2c0.2,2.5,1,4.6,2.5,6.2s3.5,2.4,6.1,2.4
		c2.3,0,4.2-0.2,5.7-0.7s3.1-1.2,4.9-2.2l2.8,6.3c-1.5,1.3-3.6,2.3-6.1,3.2C182.5,75,179.7,75.5,176.6,75.5z M175.7,43.9
		c-1.9,0-3.4,0.7-4.5,2.2c-1.1,1.5-1.8,3.4-2,5.7l0.1,0.2h12.6v-0.9c0-2.2-0.5-3.9-1.5-5.2S177.8,43.9,175.7,43.9z"/>
	<path id="XMLID_11_" class="st1" d="M214.7,75.5c-5.5,0-9.9-1.8-13.1-5.3s-4.9-8-4.9-13.4v-1.4c0-5.6,1.6-10.3,4.7-14
		s7.3-5.5,12.5-5.4c5.1,0,9.1,1.5,12,4.6s4.3,7.3,4.3,12.6v5.6h-22.7l-0.1,0.2c0.2,2.5,1,4.6,2.5,6.2s3.5,2.4,6.1,2.4
		c2.3,0,4.2-0.2,5.7-0.7s3.1-1.2,4.9-2.2l2.8,6.3c-1.5,1.3-3.6,2.3-6.1,3.2C220.6,75,217.8,75.5,214.7,75.5z M213.8,43.9
		c-1.9,0-3.4,0.7-4.5,2.2c-1.1,1.5-1.8,3.4-2,5.7l0.1,0.2H220v-0.9c0-2.2-0.5-3.9-1.5-5.2S215.9,43.9,213.8,43.9z"/>
	<path id="XMLID_14_" class="st1" d="M245.4,36.7l0.5,5.4c1.3-1.9,2.8-3.5,4.7-4.5c1.9-1.1,3.9-1.6,6.2-1.6c3.8,0,6.8,1.2,9,3.6
		c2.2,2.4,3.2,6.2,3.2,11.4v23.8h-10.3V50.9c0-2.6-0.5-4.4-1.5-5.4s-2.6-1.6-4.7-1.6c-1.4,0-2.6,0.3-3.7,0.8c-1.1,0.6-2,1.3-2.7,2.3
		v27.7h-10.3v-38H245.4z"/>
	<path id="XMLID_16_" class="st1" d="M297.2,64.3c0-1.1-0.5-2.1-1.6-2.9c-1.1-0.8-3.1-1.5-6.1-2.2c-4.5-0.9-7.9-2.3-10.2-4.1
		s-3.4-4.2-3.4-7.3c0-3.3,1.4-6.1,4.1-8.3s6.4-3.4,11.1-3.4c4.9,0,8.7,1.1,11.6,3.4c2.9,2.3,4.2,5.1,4.1,8.6l-0.1,0.2h-9.9
		c0-1.5-0.5-2.8-1.5-3.7c-1-1-2.4-1.4-4.3-1.4c-1.7,0-3,0.4-3.9,1.2s-1.4,1.8-1.4,3c0,1.2,0.5,2.1,1.5,2.9c1,0.8,3,1.4,6.1,2
		c4.7,0.9,8.2,2.3,10.4,4.1c2.3,1.8,3.4,4.3,3.4,7.5c0,3.4-1.5,6.2-4.4,8.4s-6.8,3.3-11.6,3.3c-5.1,0-9.1-1.3-12-3.8
		s-4.3-5.5-4.2-8.8l0.1-0.2h9.4c0.1,2,0.7,3.5,2,4.4s2.9,1.4,5,1.4c1.9,0,3.3-0.4,4.3-1.1S297.2,65.5,297.2,64.3z"/>
</g>
</svg>
