<?xml version="1.0" encoding="utf-8"?>
<!-- Generator: Adobe Illustrator 19.0.0, SVG Export Plug-In . SVG Version: 6.00 Build 0)  -->
<svg version="1.1" id="Layer_1" xmlns="http://www.w3.org/2000/svg" xmlns:xlink="http://www.w3.org/1999/xlink" x="0px" y="0px"
	 viewBox="0 0 750 300" style="enable-background:new 0 0 750 300;" xml:space="preserve">
<style type="text/css">
	.st0{fill:url(#XMLID_4_);}
	.st1{fill:#863B96;}
	.st2{fill:#783293;}
	.st3{fill:#692C90;}
	.st4{fill:#4B2D87;}
	.st5{fill:#775CA7;}
	.st6{fill:#5F449B;}
	.st7{fill:#543D98;}
	.st8{fill:#4A3594;}
	.st9{fill:#372F8B;}
	.st10{fill:#5E6BB2;}
	.st11{fill:#3F4DA1;}
	.st12{fill:#33439B;}
	.st13{fill:#293990;}
	.st14{fill:#2D3079;}
	.st15{fill:#57A0D7;}
	.st16{fill:#3D82C4;}
	.st17{fill:#3474BA;}
	.st18{fill:#2B66B1;}
	.st19{fill:#14499E;}
	.st20{fill:#FFFFFF;}
	.st21{font-family:'Roboto-Bold';}
	.st22{font-size:79.1903px;}
</style>
<linearGradient id="XMLID_4_" gradientUnits="userSpaceOnUse" x1="198.0844" y1="104.9658" x2="198.0844" y2="104.9658">
	<stop  offset="0" style="stop-color:#27AAE1;stop-opacity:0.8"/>
	<stop  offset="1" style="stop-color:#EC407A;stop-opacity:0.8"/>
</linearGradient>
<path id="XMLID_3_" class="st0" d="M198.1,105"/>
<path id="XMLID_24_" class="st1" d="M161.8,56c0,3.7,0,7.4,0,11.1c0,57,0,114.1,0,171.1c16.5,0,33,0,49.6,0V56
	c-13.8,0-27.5,0-41.3,0C167.3,56,164.6,56,161.8,56z"/>
<rect id="XMLID_26_" x="186.6" y="56" class="st2" width="49.6" height="182.3"/>
<rect id="XMLID_25_" x="211.4" y="56" class="st3" width="49.6" height="182.3"/>
<rect id="XMLID_23_" x="230.1" y="56" class="st4" width="49.6" height="182.3"/>
<rect id="XMLID_22_" x="254.9" y="56" class="st5" width="49.6" height="182.3"/>
<rect id="XMLID_21_" x="272.4" y="56" class="st6" width="49.6" height="182.3"/>
<rect id="XMLID_6_" x="291.8" y="56" class="st7" width="49.6" height="182.3"/>
<rect id="XMLID_7_" x="316.6" y="56" class="st8" width="49.6" height="182.3"/>
<rect id="XMLID_8_" x="333.5" y="56" class="st9" width="49.6" height="182.3"/>
<rect id="XMLID_9_" x="358.3" y="56" class="st10" width="49.6" height="182.3"/>
<rect id="XMLID_10_" x="374.6" y="56" class="st11" width="49.6" height="182.3"/>
<rect id="XMLID_11_" x="393.9" y="56" class="st12" width="49.6" height="182.3"/>
<rect id="XMLID_12_" x="413.3" y="56" class="st13" width="49.6" height="182.3"/>
<rect id="XMLID_13_" x="431.4" y="56" class="st14" width="49.6" height="182.3"/>
<rect id="XMLID_14_" x="449.6" y="56" class="st15" width="49.6" height="182.3"/>
<rect id="XMLID_15_" x="466.5" y="56" class="st16" width="49.6" height="182.3"/>
<rect id="XMLID_16_" x="481" y="56" class="st17" width="49.6" height="182.3"/>
<rect id="XMLID_17_" x="499.1" y="56" class="st18" width="49.6" height="182.3"/>
<rect id="XMLID_18_" x="517.3" y="56" class="st19" width="49.6" height="182.3"/>
<text id="XMLID_1_" transform="matrix(1 0 0 1 204.8789 174.5098)" class="st20 st21 st22">webQuilt</text>
</svg>
