<?xml version="1.0" encoding="utf-8"?>
<!-- Generator: Adobe Illustrator 19.0.0, SVG Export Plug-In . SVG Version: 6.00 Build 0)  -->
<svg version="1.1" id="Layer_1" xmlns="http://www.w3.org/2000/svg" xmlns:xlink="http://www.w3.org/1999/xlink" x="0px" y="0px"
	 viewBox="0 0 300 150" style="enable-background:new 0 0 300 150;" xml:space="preserve">
<style type="text/css">
	.st0{fill:#C82548;}
	.st1{font-family:'Roboto-Bold';}
	.st2{font-size:71.8303px;}
	.st3{fill:#4A8CCA;}
	.st4{opacity:0.71;fill:#C82548;}
	.st5{opacity:0.71;fill:#4A8CCA;}
</style>
<text id="XMLID_1_" transform="matrix(1 0 0 1 7.8359 122.219)"><tspan x="0" y="0" class="st0 st1 st2">w</tspan><tspan x="52.9" y="0" class="st3 st1 st2">e</tspan><tspan x="90.9" y="0" class="st0 st1 st2">b</tspan><tspan x="131.4" y="0" class="st3 st1 st2">Q</tspan><tspan x="181.7" y="0" class="st0 st1 st2">u</tspan><tspan x="222.2" y="0" class="st3 st1 st2">i</tspan><tspan x="241.4" y="0" class="st0 st1 st2">l</tspan><tspan x="260.6" y="0" class="st3 st1 st2">t</tspan></text>
<path id="XMLID_2_" class="st4" d="M135.9,145H19.7c-4.4,0-8.1-3.6-8.1-8.1v-1.1c0-4.4,3.6-8.1,8.1-8.1h116.3c4.4,0,8.1,3.6,8.1,8.1
	v1.1C144,141.4,140.4,145,135.9,145z"/>
<path id="XMLID_3_" class="st5" d="M284.1,145H82.5c-4.4,0-8.1-3.6-8.1-8.1v-1.1c0-4.4,3.6-8.1,8.1-8.1h201.6c4.4,0,8.1,3.6,8.1,8.1
	v1.1C292.2,141.4,288.5,145,284.1,145z"/>
</svg>
