<?xml version="1.0" encoding="utf-8"?>
<!-- Generator: Adobe Illustrator 19.0.0, SVG Export Plug-In . SVG Version: 6.00 Build 0)  -->
<svg version="1.1" id="Layer_1" xmlns="http://www.w3.org/2000/svg" xmlns:xlink="http://www.w3.org/1999/xlink" x="0px" y="0px"
	 viewBox="0 0 300 150" style="enable-background:new 0 0 300 150;" xml:space="preserve">
<style type="text/css">
	.st0{fill:#84D2F6;stroke:#FFFFFF;stroke-miterlimit:10;}
	.st1{opacity:0.71;}
	.st2{fill:#5AC7DA;}
	.st3{fill:#4A8CCA;}
</style>
<g id="XMLID_1_">
	<path id="XMLID_7_" class="st0" d="M44.8,108.6H45l4.9-24.4h9.6l-9.6,37.9h-8.6l-7-22.6h-0.2l-7,22.6h-8.5L8.9,84.3h9.6l5,24.3h0.2
		l7.1-24.3h6.8L44.8,108.6z"/>
	<path id="XMLID_9_" class="st0" d="M81.4,123c-5.5,0-9.8-1.8-13.1-5.3c-3.3-3.5-4.9-8-4.9-13.4v-1.4c0-5.6,1.5-10.3,4.6-13.9
		c3.1-3.6,7.3-5.5,12.5-5.4c5.1,0,9.1,1.5,11.9,4.6c2.8,3.1,4.2,7.3,4.2,12.5v5.6H74l-0.1,0.2c0.2,2.5,1,4.5,2.5,6.1
		c1.5,1.6,3.5,2.4,6,2.4c2.3,0,4.2-0.2,5.6-0.7c1.5-0.5,3.1-1.2,4.9-2.2l2.8,6.3c-1.5,1.3-3.6,2.3-6.1,3.2
		C87.3,122.5,84.5,123,81.4,123z M80.5,91.5c-1.9,0-3.4,0.7-4.5,2.2c-1.1,1.5-1.8,3.4-2,5.7l0.1,0.2h12.6v-0.9
		c0-2.2-0.5-3.9-1.5-5.2S82.6,91.5,80.5,91.5z"/>
	<path id="XMLID_12_" class="st0" d="M136.9,104.3c0,5.7-1.3,10.2-3.8,13.6s-6.2,5.1-10.9,5.1c-2.2,0-4.1-0.5-5.8-1.4
		c-1.6-0.9-3-2.3-4.2-4.1l-0.8,4.7h-8.8V67.5h10.2v20.8c1.1-1.5,2.4-2.7,3.9-3.5c1.5-0.8,3.3-1.2,5.3-1.2c4.8,0,8.5,1.8,11,5.5
		s3.8,8.5,3.8,14.5V104.3z M126.7,103.6c0-3.7-0.5-6.7-1.6-8.8c-1.1-2.2-2.9-3.3-5.6-3.3c-1.6,0-2.9,0.3-4,1c-1.1,0.7-2,1.6-2.6,2.9
		v16.2c0.6,1.2,1.5,2,2.6,2.6c1.1,0.6,2.5,0.9,4.1,0.9c2.6,0,4.5-0.9,5.5-2.8s1.6-4.5,1.6-8V103.6z"/>
	<path id="XMLID_15_" class="st0" d="M185.1,101.3c0,3.1-0.5,6-1.5,8.6c-1,2.6-2.4,4.9-4.3,6.9l8.5,8.2l-6.7,5.4l-9.2-8.9
		c-1.3,0.4-2.6,0.8-3.9,1c-1.4,0.2-2.8,0.4-4.2,0.4c-6.3,0-11.4-2-15.3-6.1c-3.9-4.1-5.9-9.3-5.9-15.5v-9.2c0-6.2,2-11.4,5.9-15.5
		c3.9-4.1,9-6.2,15.3-6.2c6.3,0,11.5,2.1,15.5,6.2c4,4.1,6,9.3,6,15.5V101.3z M174.9,92c0-4-1-7.3-3-9.8c-2-2.6-4.7-3.8-8.2-3.8
		c-3.5,0-6.2,1.3-8.1,3.8s-2.9,5.8-2.9,9.8v9.3c0,4.1,1,7.4,2.9,9.9s4.6,3.8,8.1,3.8c3.5,0,6.2-1.3,8.2-3.8c2-2.6,2.9-5.9,2.9-9.9
		V92z"/>
	<path id="XMLID_18_" class="st0" d="M216.6,116.7c-1.2,2-2.7,3.5-4.5,4.6s-3.9,1.6-6.2,1.6c-4,0-7.1-1.3-9.4-3.8
		c-2.3-2.6-3.4-6.5-3.4-11.9V84.3h10.2v23c0,2.8,0.5,4.8,1.4,6c0.9,1.2,2.3,1.8,4.1,1.8c1.6,0,3-0.3,4.2-0.8
		c1.2-0.5,2.1-1.3,2.9-2.3V84.3h10.2v37.9h-8.7L216.6,116.7z"/>
	<path id="XMLID_20_" class="st0" d="M244.8,75.2h-10.2v-7.7h10.2V75.2z M244.8,122.2h-10.2V84.3h10.2V122.2z"/>
	<path id="XMLID_23_" class="st0" d="M263.9,122.2h-10.2V67.5h10.2V122.2z"/>
	<path id="XMLID_25_" class="st0" d="M284.5,75v9.3h6.4v7.2h-6.4v19.3c0,1.5,0.3,2.5,0.9,3.2c0.6,0.6,1.4,0.9,2.5,0.9
		c0.5,0,1,0,1.4-0.1c0.4-0.1,0.8-0.2,1.3-0.3l0.9,7.4c-1,0.4-2,0.6-3,0.8c-1,0.2-2,0.3-3.2,0.3c-3.5,0-6.2-1-8.2-2.9
		c-1.9-1.9-2.9-5-2.9-9.2V91.5h-5.5v-7.2h5.5V75H284.5z"/>
</g>
<g id="XMLID_2_" class="st1">
	<path id="XMLID_5_" class="st2" d="M135.9,145H19.7c-4.4,0-8.1-3.6-8.1-8.1v-1.1c0-4.4,3.6-8.1,8.1-8.1h116.3
		c4.4,0,8.1,3.6,8.1,8.1v1.1C144,141.4,140.4,145,135.9,145z"/>
</g>
<g id="XMLID_3_" class="st1">
	<path id="XMLID_4_" class="st3" d="M284.1,145H98.8c-4.4,0-8.1-3.6-8.1-8.1v-1.1c0-4.4,3.6-8.1,8.1-8.1h185.3
		c4.4,0,8.1,3.6,8.1,8.1v1.1C292.2,141.4,288.5,145,284.1,145z"/>
</g>
</svg>
