<?xml version="1.0" encoding="utf-8"?>
<!-- Generator: Adobe Illustrator 19.0.0, SVG Export Plug-In . SVG Version: 6.00 Build 0)  -->
<svg version="1.1" id="Layer_1" xmlns="http://www.w3.org/2000/svg" xmlns:xlink="http://www.w3.org/1999/xlink" x="0px" y="0px"
	 viewBox="0 0 400 100" style="enable-background:new 0 0 400 100;" xml:space="preserve">
<style type="text/css">
	.st0{fill:#2B313C;}
	.st1{fill:#40E0D0;}
</style>
<g id="XMLID_2_">
	<rect class="st0" width="400" height="100"/>
</g>
<g id="XMLID_1_">
	<path id="XMLID_4_" class="st1" d="M60.8,31.4H46.3v43.3H36.1V31.4H21.6v-7.9h39.2V31.4z"/>
	<path id="XMLID_6_" class="st1" d="M86.2,69.2c-1.2,2-2.7,3.5-4.5,4.6s-3.9,1.6-6.2,1.6c-4,0-7.1-1.3-9.4-3.8s-3.4-6.6-3.4-12v-23
		H73v23.1c0,2.8,0.5,4.8,1.4,6s2.3,1.8,4.1,1.8c1.6,0,3-0.3,4.2-0.8s2.1-1.3,2.9-2.3V36.7h10.3v38h-8.8L86.2,69.2z"/>
	<path id="XMLID_8_" class="st1" d="M123.6,45.5l-3.8-0.1c-1.5,0-2.8,0.3-3.8,0.9s-1.7,1.5-2.3,2.7v25.7h-10.2v-38h9.5l0.5,5.6
		c0.9-2,2-3.5,3.5-4.7c1.4-1.1,3.1-1.7,4.9-1.7c0.5,0,1,0,1.4,0.1c0.4,0.1,0.9,0.2,1.3,0.3L123.6,45.5z"/>
	<path id="XMLID_10_" class="st1" d="M127.2,56c0-6,1.3-10.8,3.9-14.5c2.6-3.7,6.2-5.5,11-5.5c2.1,0,4,0.5,5.6,1.4
		c1.6,0.9,3,2.3,4.1,4l0.9-4.7h8.7v52.7h-10.3V71.2c-1.1,1.4-2.4,2.5-4,3.2s-3.2,1.1-5.2,1.1c-4.7,0-8.3-1.7-10.9-5.1
		s-3.9-7.9-3.9-13.6V56z M137.5,56.7c0,3.3,0.6,6,1.7,7.9c1.1,1.9,3,2.9,5.5,2.9c1.5,0,2.8-0.3,3.9-0.8s2-1.4,2.6-2.5V47.4
		c-0.7-1.1-1.6-2-2.6-2.6c-1.1-0.6-2.3-0.9-3.8-0.9c-2.5,0-4.3,1.1-5.5,3.4s-1.7,5.2-1.7,8.7V56.7z"/>
	<path id="XMLID_13_" class="st1" d="M192.7,69.2c-1.2,2-2.7,3.5-4.5,4.6s-3.9,1.6-6.2,1.6c-4,0-7.1-1.3-9.4-3.8s-3.4-6.6-3.4-12
		v-23h10.2v23.1c0,2.8,0.5,4.8,1.4,6s2.3,1.8,4.1,1.8c1.6,0,3-0.3,4.2-0.8s2.1-1.3,2.9-2.3V36.7h10.3v38h-8.8L192.7,69.2z"/>
	<path id="XMLID_15_" class="st1" d="M220.9,27.6h-10.3v-7.7h10.3V27.6z M220.9,74.7h-10.3v-38h10.3V74.7z"/>
	<path id="XMLID_18_" class="st1" d="M227.8,55.4c0-5.7,1.6-10.3,4.7-13.9s7.5-5.4,13.1-5.4c5.6,0,10,1.8,13.2,5.4
		c3.2,3.6,4.8,8.3,4.8,14v0.7c0,5.7-1.6,10.4-4.8,14s-7.6,5.4-13.2,5.4c-5.6,0-10-1.8-13.2-5.4s-4.8-8.3-4.8-14V55.4z M238,56.1
		c0,3.5,0.6,6.2,1.8,8.3s3.2,3.1,5.9,3.1c2.6,0,4.6-1.1,5.8-3.2s1.8-4.9,1.8-8.3v-0.7c0-3.4-0.6-6.1-1.9-8.2s-3.2-3.2-5.9-3.2
		c-2.6,0-4.6,1.1-5.8,3.2S238,52,238,55.3V56.1z"/>
	<path id="XMLID_21_" class="st1" d="M290.5,64.3c0-1.1-0.5-2.1-1.6-2.9s-3.1-1.5-6.1-2.2c-4.5-0.9-7.9-2.3-10.2-4.1
		s-3.4-4.2-3.4-7.3c0-3.3,1.4-6.1,4.1-8.3s6.4-3.4,11.1-3.4c4.9,0,8.7,1.1,11.6,3.4c2.9,2.3,4.2,5.1,4.1,8.6l-0.1,0.2h-9.9
		c0-1.5-0.5-2.8-1.5-3.7c-1-1-2.4-1.4-4.3-1.4c-1.7,0-3,0.4-3.9,1.2s-1.4,1.8-1.4,3c0,1.2,0.5,2.1,1.5,2.9c1,0.8,3,1.4,6.1,2
		c4.7,0.9,8.2,2.3,10.4,4.1s3.4,4.3,3.4,7.5c0,3.4-1.5,6.2-4.4,8.4s-6.8,3.3-11.6,3.3c-5.1,0-9.1-1.3-12-3.8s-4.3-5.5-4.2-8.8
		l0.1-0.2h9.4c0.1,2,0.7,3.5,2,4.4s2.9,1.4,5,1.4c1.9,0,3.3-0.4,4.3-1.1S290.5,65.5,290.5,64.3z"/>
	<path id="XMLID_23_" class="st1" d="M323.9,75.5c-5.5,0-9.9-1.8-13.1-5.3s-4.9-8-4.9-13.4v-1.4c0-5.6,1.6-10.3,4.7-14
		S317.8,36,323,36c5.1,0,9.1,1.5,12,4.6s4.3,7.3,4.3,12.6v5.6h-22.7l-0.1,0.2c0.2,2.5,1,4.6,2.5,6.2s3.5,2.4,6.1,2.4
		c2.3,0,4.2-0.2,5.7-0.7s3.1-1.2,4.9-2.2l2.8,6.3c-1.5,1.3-3.6,2.3-6.1,3.2C329.8,75,327,75.5,323.9,75.5z M323,43.9
		c-1.9,0-3.4,0.7-4.5,2.2c-1.1,1.5-1.8,3.4-2,5.7l0.1,0.2h12.6v-0.9c0-2.2-0.5-3.9-1.5-5.2S325.1,43.9,323,43.9z"/>
	<path id="XMLID_26_" class="st1" d="M365.8,64.3c0-1.1-0.5-2.1-1.6-2.9s-3.1-1.5-6.1-2.2c-4.5-0.9-7.9-2.3-10.2-4.1
		s-3.4-4.2-3.4-7.3c0-3.3,1.4-6.1,4.1-8.3S355,36,359.7,36c4.9,0,8.7,1.1,11.6,3.4c2.9,2.3,4.2,5.1,4.1,8.6l-0.1,0.2h-9.9
		c0-1.5-0.5-2.8-1.5-3.7c-1-1-2.4-1.4-4.3-1.4c-1.7,0-3,0.4-3.9,1.2s-1.4,1.8-1.4,3c0,1.2,0.5,2.1,1.5,2.9c1,0.8,3,1.4,6.1,2
		c4.7,0.9,8.2,2.3,10.4,4.1s3.4,4.3,3.4,7.5c0,3.4-1.5,6.2-4.4,8.4s-6.8,3.3-11.6,3.3c-5.1,0-9.1-1.3-12-3.8s-4.3-5.5-4.2-8.8
		l0.1-0.2h9.4c0.1,2,0.7,3.5,2,4.4s2.9,1.4,5,1.4c1.9,0,3.3-0.4,4.3-1.1S365.8,65.5,365.8,64.3z"/>
</g>
</svg>
