<?xml version="1.0" encoding="utf-8"?>
<!-- Generator: Adobe Illustrator 19.0.0, SVG Export Plug-In . SVG Version: 6.00 Build 0)  -->
<svg version="1.1" id="Layer_1" xmlns="http://www.w3.org/2000/svg" xmlns:xlink="http://www.w3.org/1999/xlink" x="0px" y="0px"
	 viewBox="0 0 500 500" style="enable-background:new 0 0 500 500;" xml:space="preserve">
<style type="text/css">
	.st0{fill:#242831;}
	.st1{fill:#2B313C;}
	.st2{fill:#FFE988;}
</style>
<g id="XMLID_23_">
	<rect id="XMLID_27_" y="0.5" class="st0" width="500" height="499"/>
	<path id="XMLID_24_" class="st0" d="M500.5,500h-501V0h501V500z M0.5,499h499V1H0.5V499z"/>
</g>
<g id="XMLID_1_">
	<rect id="XMLID_3_" y="118.6" class="st1" width="500" height="231.9"/>
	<path id="XMLID_20_" class="st1" d="M500.5,350.8h-501V118.4h501V350.8z M0.5,350.3h499V118.9H0.5V350.3z"/>
</g>
<g id="XMLID_2_">
	<path id="XMLID_4_" class="st2" d="M52.3,232.9h0.4l21.8-46h21.9l-34.2,64.6v35.1H42.2v-36.1L8.6,187h21.9L52.3,232.9z"/>
	<path id="XMLID_6_" class="st2" d="M128.4,288.1c-10.7,0-19.2-3.4-25.6-10.3c-6.4-6.8-9.6-15.5-9.6-26.1V249c0-11,3-20.1,9.1-27.2
		c6-7.1,14.2-10.7,24.3-10.6c10,0,17.8,3,23.3,9c5.5,6,8.3,14.2,8.3,24.4v10.9h-44.2l-0.1,0.4c0.4,4.9,2,8.9,4.9,12
		c2.9,3.1,6.8,4.7,11.8,4.7c4.4,0,8.1-0.4,11-1.3c2.9-0.9,6.1-2.3,9.6-4.2l5.4,12.4c-3,2.5-7,4.5-11.8,6.2
		C139.8,287.3,134.4,288.1,128.4,288.1z M126.6,226.6c-3.7,0-6.6,1.4-8.8,4.2c-2.1,2.8-3.5,6.6-4,11.2l0.2,0.3h24.5v-1.8
		c0-4.2-1-7.6-3-10.2C133.6,227.9,130.6,226.6,126.6,226.6z"/>
	<path id="XMLID_9_" class="st2" d="M190.8,286.7h-20V179.9h20V286.7z"/>
	<path id="XMLID_11_" class="st2" d="M228.3,286.7h-20V179.9h20V286.7z"/>
	<path id="XMLID_13_" class="st2" d="M241.7,249c0-11,3.1-20.1,9.2-27.2c6.2-7.1,14.7-10.6,25.6-10.6c11,0,19.5,3.5,25.7,10.5
		c6.2,7,9.3,16.1,9.3,27.2v1.4c0,11.1-3.1,20.2-9.3,27.2c-6.2,7-14.7,10.5-25.6,10.5c-11,0-19.5-3.5-25.7-10.5
		c-6.2-7-9.3-16.1-9.3-27.2V249z M261.6,250.4c0,6.7,1.2,12.2,3.6,16.2c2.4,4.1,6.2,6.1,11.5,6.1c5.2,0,8.9-2.1,11.3-6.2
		c2.4-4.1,3.6-9.5,3.6-16.2v-1.4c0-6.6-1.2-11.9-3.6-16.1c-2.4-4.1-6.2-6.2-11.4-6.2c-5.2,0-8.9,2.1-11.3,6.3
		c-2.4,4.2-3.6,9.5-3.6,16V250.4z"/>
	<path id="XMLID_16_" class="st2" d="M388.3,260.2h0.4l9.7-47.6h18.8l-18.8,74.1h-16.7l-13.8-44.1h-0.4l-13.8,44.1H337l-18.8-74.1
		H337l9.8,47.5h0.4l13.8-47.5h13.4L388.3,260.2z"/>
	<path id="XMLID_18_" class="st2" d="M467.2,266.3c0-2.2-1.1-4.1-3.2-5.7c-2.1-1.6-6.1-3-11.8-4.2c-8.8-1.8-15.4-4.4-19.8-7.9
		c-4.5-3.5-6.7-8.3-6.7-14.3c0-6.4,2.7-11.8,8-16.3c5.4-4.5,12.5-6.7,21.5-6.7c9.5,0,17,2.2,22.6,6.6c5.6,4.4,8.3,10,8,16.8
		l-0.1,0.4h-19.3c0-3-0.9-5.4-2.8-7.3s-4.7-2.8-8.3-2.8c-3.2,0-5.8,0.8-7.6,2.4c-1.8,1.6-2.8,3.5-2.8,5.9c0,2.3,1,4.2,2.9,5.6
		c1.9,1.5,5.9,2.8,11.8,3.9c9.1,1.8,15.9,4.5,20.3,8c4.4,3.5,6.6,8.4,6.6,14.6c0,6.7-2.9,12.1-8.6,16.3c-5.7,4.2-13.2,6.3-22.6,6.3
		c-9.9,0-17.7-2.5-23.4-7.5s-8.5-10.7-8.2-17.1l0.1-0.4h18.3c0.1,4,1.4,6.8,3.9,8.6c2.5,1.8,5.7,2.7,9.7,2.7c3.7,0,6.5-0.7,8.5-2.2
		C466.2,270.8,467.2,268.8,467.2,266.3z"/>
</g>
</svg>
