<?xml version="1.0" encoding="utf-8"?>
<!-- Generator: Adobe Illustrator 19.0.0, SVG Export Plug-In . SVG Version: 6.00 Build 0)  -->
<svg version="1.1" id="Layer_1" xmlns="http://www.w3.org/2000/svg" xmlns:xlink="http://www.w3.org/1999/xlink" x="0px" y="0px"
	 viewBox="0 0 400 100" style="enable-background:new 0 0 400 100;" xml:space="preserve">
<style type="text/css">
	.st0{fill:#2B313C;}
	.st1{fill:#FFE988;}
</style>
<rect id="XMLID_2_" class="st0" width="400" height="100"/>
<g id="XMLID_1_">
	<path id="XMLID_4_" class="st1" d="M126,49.8h0.2l8-16.8h8l-12.5,23.7v12.8h-7.3V56.3L110,33h8L126,49.8z"/>
	<path id="XMLID_6_" class="st1" d="M153.9,70c-3.9,0-7-1.3-9.4-3.8c-2.3-2.5-3.5-5.7-3.5-9.6v-1c0-4,1.1-7.3,3.3-10
		c2.2-2.6,5.2-3.9,8.9-3.9c3.7,0,6.5,1.1,8.5,3.3c2,2.2,3,5.2,3,9v4h-16.2l-0.1,0.1c0.1,1.8,0.7,3.2,1.8,4.4
		c1.1,1.1,2.5,1.7,4.3,1.7c1.6,0,3-0.2,4-0.5c1.1-0.3,2.2-0.8,3.5-1.5l2,4.5c-1.1,0.9-2.5,1.7-4.3,2.3S156.1,70,153.9,70z
		 M153.2,47.5c-1.4,0-2.4,0.5-3.2,1.6c-0.8,1-1.3,2.4-1.5,4.1l0.1,0.1h9v-0.7c0-1.6-0.4-2.8-1.1-3.7S154.7,47.5,153.2,47.5z"/>
	<path id="XMLID_9_" class="st1" d="M176.7,69.5h-7.3V30.4h7.3V69.5z"/>
	<path id="XMLID_11_" class="st1" d="M190.5,69.5h-7.3V30.4h7.3V69.5z"/>
	<path id="XMLID_13_" class="st1" d="M195.3,55.7c0-4,1.1-7.4,3.4-9.9c2.3-2.6,5.4-3.9,9.4-3.9c4,0,7.2,1.3,9.4,3.9
		c2.3,2.6,3.4,5.9,3.4,10v0.5c0,4.1-1.1,7.4-3.4,10c-2.3,2.6-5.4,3.8-9.4,3.8c-4,0-7.2-1.3-9.4-3.8c-2.3-2.6-3.4-5.9-3.4-10V55.7z
		 M202.6,56.2c0,2.5,0.4,4.5,1.3,5.9s2.3,2.2,4.2,2.2c1.9,0,3.3-0.8,4.1-2.3c0.9-1.5,1.3-3.5,1.3-5.9v-0.5c0-2.4-0.4-4.4-1.3-5.9
		c-0.9-1.5-2.3-2.3-4.2-2.3c-1.9,0-3.3,0.8-4.1,2.3c-0.9,1.5-1.3,3.5-1.3,5.9V56.2z"/>
	<path id="XMLID_16_" class="st1" d="M249,59.8h0.2l3.5-17.4h6.9l-6.9,27.1h-6.1l-5-16.1h-0.2l-5,16.1h-6.1l-6.9-27.1h6.9l3.6,17.4
		h0.2l5.1-17.4h4.9L249,59.8z"/>
	<path id="XMLID_18_" class="st1" d="M277.9,62c0-0.8-0.4-1.5-1.2-2.1s-2.2-1.1-4.3-1.6c-3.2-0.7-5.6-1.6-7.3-2.9
		c-1.6-1.3-2.4-3-2.4-5.2c0-2.3,1-4.3,2.9-6c2-1.6,4.6-2.4,7.9-2.4c3.5,0,6.2,0.8,8.3,2.4s3,3.7,2.9,6.1l-0.1,0.2h-7.1
		c0-1.1-0.3-2-1-2.7c-0.7-0.7-1.7-1-3-1c-1.2,0-2.1,0.3-2.8,0.9c-0.7,0.6-1,1.3-1,2.2c0,0.8,0.4,1.5,1.1,2.1c0.7,0.5,2.2,1,4.3,1.4
		c3.3,0.7,5.8,1.7,7.4,2.9c1.6,1.3,2.4,3.1,2.4,5.4c0,2.4-1,4.4-3.1,6c-2.1,1.5-4.8,2.3-8.3,2.3c-3.6,0-6.5-0.9-8.6-2.7
		c-2.1-1.8-3.1-3.9-3-6.3l0.1-0.2h6.7c0,1.5,0.5,2.5,1.4,3.2c0.9,0.7,2.1,1,3.5,1c1.4,0,2.4-0.3,3.1-0.8
		C277.6,63.7,277.9,63,277.9,62z"/>
</g>
</svg>
